<?xml version="1.0" encoding="UTF-8"?>
<svg xmlns="http://www.w3.org/2000/svg" role="img" aria-labelledby="title desc" viewBox="192 100 870 985">
  <title id="title">GTM Venture Advisors compass monogram</title>
  <desc id="desc">Canonical GTM monogram inside a four-point compass.</desc>
  <path d="M668,287 671,311 685,313 706,318 743,331 756,338 762,340 787,355 819,380 849,411 860,425 875,448 889,475 899,500 899,503 902,510 902,513 907,529 909,541 912,543 935,550 931,527 924,504 924,501 914,474 900,445 890,428 871,401 852,379 840,367 804,338 778,322 758,312 756,312 739,304 711,295 690,291 689,290 685,290 684,289Z M585,287 555,292 532,299 529,299 489,315 485,318 472,324 447,340 416,365 398,383 385,398 372,415 356,440 348,457 346,459 346,461 341,470 333,490 326,512 321,532 318,550 343,542 348,518 353,505 353,502 363,477 373,457 383,440 397,420 415,399 428,386 444,372 464,357 473,352 476,349 506,333 526,325 548,318 569,314 570,313 581,312 582,311Z M317,645 318,646 321,672 327,697 336,724 344,741 344,743 354,763 369,788 379,802 401,828 413,840 436,860 440,862 451,871 478,888 502,900 522,908 560,919 576,921 574,914 572,897 551,893 526,885 493,870 476,860 448,840 435,829 414,808 395,785 381,764 365,734 365,732 357,715 349,691 343,665 342,653Z M935,645 911,653 910,664 904,690 897,712 890,727 890,729 885,738 885,740 863,778 838,810 806,841 790,853 766,868 744,879 724,886 721,888 718,888 704,893 682,897 678,921 698,918 702,916 706,916 732,908 752,900 776,888 796,876 818,860 830,850 856,824 871,806 884,788 900,761 911,738 919,718 927,692 931,671 932,670 932,666 933,665Z M627,117 626,118 626,126 625,127 625,134 624,135 624,142 623,143 623,151 622,152 622,160 621,161 621,169 620,170 620,178 619,179 619,187 618,188 618,196 617,197 617,206 616,207 616,215 615,216 615,223 614,224 614,233 613,234 613,242 612,243 612,251 611,252 611,260 610,261 610,269 609,270 609,278 608,279 608,287 607,288 607,296 606,297 606,305 605,306 605,314 604,315 604,323 603,324 602,335 594,356 584,374 575,388 557,412 584,394 610,373 625,358 625,354 627,348 629,353 629,358 644,373 666,391 693,409 674,382 657,353 649,329 648,312 647,311 647,303 646,302 646,294 645,293 645,284 644,283 644,274 643,273 643,264 642,263 642,255 641,254 641,245 640,244 640,236 639,235 639,227 638,226 638,218 637,217 637,209 636,208 636,199 635,198 635,190 634,189 634,181 633,180 633,171 632,170 632,162 631,161 629,136 628,135Z M665,860 632,902 627,911 623,903 589,860 592,870 592,874 598,900 598,905 600,911 600,916 603,928 608,962 610,968 616,1008 618,1014 618,1020 619,1021 620,1032 622,1038 626,1067 627,1067 631,1038 633,1032 636,1009 638,1003 638,998 640,992 641,981 644,970 644,965 648,948 648,943 649,942 651,926 654,915 654,910 655,909 657,895 659,890 659,885 661,880 661,876Z M353,635 301,597 348,563 286,582 266,587 262,587 257,589 253,589 248,591 210,598 252,606 288,615Z M899,635 929,625 932,625 957,617 964,616 968,614 980,612 984,610 988,610 1005,605 1043,598 1029,596 1014,592 1009,592 1004,590 1000,590 982,585 974,584 970,582 959,580 935,572 932,572 903,562 943,591 950,598Z" fill="#07182D" fill-rule="evenodd"/>
  <path d="M640,411 639,411 639,853 670,820 670,474 671,473 673,473 694,488 700,491 703,494 719,504 724,509 724,741 755,741 755,532 757,530 856,599 856,601 800,669 800,714 874,629 893,610 909,597 769,499 753,489 737,477Z M613,411 507,482 415,546 390,562 361,583 348,591 343,596 535,741 535,599 534,598 533,599 488,599 487,598 486,599 487,600 487,626 505,626 506,627 506,676 504,677 398,597 401,594 448,563 517,515 582,472 583,473 583,819 614,852 614,411Z" fill="#07182D" fill-rule="evenodd"/>
</svg>
